<?xml version="1.0" standalone="no"?>
<!DOCTYPE svg PUBLIC "-//W3C//DTD SVG 20010904//EN"
 "http://www.w3.org/TR/2001/REC-SVG-20010904/DTD/svg10.dtd">
<svg version="1.0" xmlns="http://www.w3.org/2000/svg"
 width="600.000000pt" height="350.000000pt" viewBox="0 0 600.000000 350.000000"
 preserveAspectRatio="xMidYMid meet">
<metadata>
Created by potrace 1.15, written by Peter Selinger 2001-2017
</metadata>
<g transform="translate(0.000000,350.000000) scale(0.100000,-0.100000)"
fill="#000000" stroke="none">
<path d="M2755 3103 c-414 -74 -782 -354 -974 -740 -100 -200 -136 -360 -136
-603 0 -192 13 -274 66 -435 68 -204 171 -367 334 -530 121 -122 219 -192 370
-265 91 -44 272 -108 279 -99 1 2 33 144 70 314 37 171 69 318 72 328 5 16
-12 17 -250 17 -164 0 -256 4 -256 10 0 6 24 10 54 10 37 0 60 5 74 17 16 15
45 131 151 614 72 328 131 608 131 621 0 36 -19 48 -77 48 -29 0 -53 5 -53 10
0 6 59 10 156 10 101 0 153 -3 149 -10 -3 -5 -28 -10 -55 -10 -65 0 -77 -6
-89 -43 -6 -18 -69 -300 -141 -627 -71 -327 -132 -605 -135 -618 l-5 -22 175
0 175 0 6 28 c3 15 10 43 15 62 9 40 419 1900 419 1905 0 2 -28 8 -63 14 -88
15 -365 12 -462 -6z"/>
<path d="M3295 3078 c-3 -7 -63 -278 -134 -603 -71 -324 -134 -609 -139 -632
l-10 -43 183 0 182 0 62 283 c34 155 61 287 61 294 0 19 -35 33 -84 33 -25 0
-46 5 -46 10 0 6 57 10 150 10 93 0 150 -4 150 -10 0 -5 -24 -10 -53 -10 -29
0 -61 -6 -71 -13 -13 -9 -51 -165 -153 -631 l-137 -619 23 -18 c16 -13 39 -19
73 -19 30 0 47 -4 43 -10 -8 -13 -305 -13 -305 0 0 6 20 10 45 10 56 0 92 16
99 46 15 59 136 614 136 624 0 6 -62 10 -180 10 -178 0 -180 0 -185 -22 -24
-102 -286 -1304 -288 -1321 -2 -20 5 -23 63 -33 98 -18 352 -17 456 1 267 46
517 172 710 357 199 191 328 418 392 691 23 98 26 134 26 292 1 195 -16 307
-71 459 -144 402 -483 728 -885 850 -96 30 -107 31 -113 14z"/>
</g>
</svg>
